<svg width="144" height="112" viewBox="0 0 144 112" fill="none" xmlns="http://www.w3.org/2000/svg">
<path d="M139.171 64.6355L102.582 8.20725C99.2503 3.068 93.6042 0 87.4792 0H14C6.28025 0 0 6.2805 0 14V16C0 27.028 8.972 36 20 36H69.0105L64.4273 48H36C23.8693 48 14 57.8693 14 70C14 77.7197 20.2803 84 28 84H60.888C61.6348 84 62.3665 84.1373 63.0622 84.4078L88 94.1045V112H144V80.9573C144 75.151 142.33 69.507 139.171 64.6355ZM132 100H100V94.1045C100 89.1175 96.9965 84.7275 92.349 82.9205L67.4112 73.2235C65.3319 72.4133 63.1196 71.9984 60.888 72H28C26.8973 72 26 71.1027 26 70C26 64.486 30.486 60 36 60H64.4273C69.369 60 73.8738 56.8982 75.6373 52.2817L81.7753 36.2115C84.0243 30.3232 79.6683 24 73.3678 24H20C15.5887 24 12 20.4113 12 16V14C12 12.8973 12.8973 12 14 12H87.4792C89.5207 12 91.4025 13.0225 92.5135 14.7355L129.103 71.1643C130.996 74.0795 132.002 77.4814 132 80.9573V100Z" fill="white"/>
</svg>
