<svg width="112" height="128" viewBox="0 0 112 128" fill="none" xmlns="http://www.w3.org/2000/svg">
<g clip-path="url(#clip0_19_164)">
<path d="M93.1425 28.1601V25.4539C93.1425 14.5509 83.0125 6.2811 72.3828 9.06735C65.9755 -3.30765 48.8603 -2.79515 42.8873 9.2541C32.5673 6.61385 22.286 14.4861 22.286 25.4999V57.0324C17.2978 55.1756 11.459 55.7654 6.76528 59.2501C-0.573474 64.6991 -2.18322 75.0833 3.12778 82.5383L33.12 124.642C33.8599 125.681 34.8372 126.527 35.9706 127.111C37.1039 127.695 38.3605 128 39.6355 128H95.3598C99.0858 128 102.319 125.428 103.155 121.797L110.701 89.0574C111.564 85.3131 111.999 81.4832 112 77.6408V44.7499C112 34.5949 103.119 26.7519 93.1425 28.1601ZM99.9993 77.6406C99.9993 80.5733 99.6658 83.5078 99.008 86.3621L92.1768 116H41.6968L12.8978 75.5756C9.28803 70.5081 16.6535 64.8816 20.2463 69.9243L27.0283 79.4441C29.277 82.6006 34.286 81.0158 34.286 77.1233V25.4999C34.286 19.0886 43.4288 19.2974 43.4288 25.6726V63.9998C43.4288 66.2091 45.2195 67.9998 47.4288 67.9998H49.1428C51.352 67.9998 53.1428 66.2091 53.1428 63.9998V16.7499C53.1428 10.3341 62.2855 10.5474 62.2855 16.9226V63.9998C62.2855 66.2091 64.0763 67.9998 66.2855 67.9998H67.9995C70.2088 67.9998 71.9995 66.2091 71.9995 63.9998V25.2811C71.9995 18.8631 81.142 19.0786 81.142 25.4539V63.9998C81.142 66.2091 82.9328 67.9998 85.142 67.9998H86.8563C89.0655 67.9998 90.8563 66.2091 90.8563 63.9998V44.9226C90.8563 38.3621 99.9988 38.5126 99.9988 44.7499L99.9993 77.6406Z" fill="black"/>
<path d="M99.9993 77.6406C99.9993 80.5733 99.6658 83.5078 99.008 86.3621L92.1768 116H41.6968L12.8978 75.5756C9.28803 70.5081 16.6535 64.8816 20.2463 69.9243L27.0283 79.4441C29.277 82.6006 34.286 81.0158 34.286 77.1233V25.4999C34.286 19.0886 43.4288 19.2974 43.4288 25.6726V63.9998C43.4288 66.2091 45.2195 67.9998 47.4288 67.9998H49.1428C51.352 67.9998 53.1428 66.2091 53.1428 63.9998V16.7499C53.1428 10.3341 62.2855 10.5474 62.2855 16.9226V63.9998C62.2855 66.2091 64.0763 67.9998 66.2855 67.9998H67.9995C70.2088 67.9998 71.9995 66.2091 71.9995 63.9998V25.2811C71.9995 18.8631 81.142 19.0786 81.142 25.4539V63.9998C81.142 66.2091 82.9328 67.9998 85.142 67.9998H86.8563C89.0655 67.9998 90.8563 66.2091 90.8563 63.9998V44.9226C90.8563 38.3621 99.9988 38.5126 99.9988 44.7499L99.9993 77.6406Z" fill="#FFC700"/>
</g>
<defs>
<clipPath id="clip0_19_164">
<rect width="112" height="128" fill="white"/>
</clipPath>
</defs>
</svg>
