<svg width="128" height="128" viewBox="0 0 128 128" fill="none" xmlns="http://www.w3.org/2000/svg">
<path d="M102.216 19.7629C96.6158 11.2884 85.689 9.19467 77.5127 13.8659C70.1442 5.99867 57.7265 6.09267 50.4292 13.8604C38.6392 7.10542 23.2517 15.1242 22.7615 29.0619C11.2115 26.3517 0 35.0002 0 46.8572V61.0954C0 69.2807 3.57 77.0839 9.795 82.5039L34.2225 103.774C35.2855 104.7 35 105.167 35 112C35 116.418 38.5817 120 43 120H106C110.418 120 114 116.418 114 112C114 106.122 113.746 104.314 114.995 101.407L125.704 76.4934C127.228 72.9492 128 69.2004 128 65.3514V36.7407C128 23.5309 114.422 14.5752 102.216 19.7629ZM116 65.3514C116.002 67.5536 115.552 69.7328 114.679 71.7547L103.971 96.6684C102.663 99.7112 102 102.928 102 106.231V108H47V105.428C47 101.336 45.215 97.4342 42.1025 94.7242L17.675 73.4542C14.0685 70.3137 12 65.8089 12 61.0952V46.8569C12 38.5549 25 38.4727 25 47.0262V57.3332C25 57.9049 25.1226 58.4701 25.3594 58.9905C25.5963 59.5109 25.942 59.9744 26.3732 60.3499L28.1232 61.8737C28.7022 62.3778 29.4139 62.7046 30.1735 62.8153C30.9331 62.9259 31.7085 62.8156 32.4072 62.4976C33.1058 62.1796 33.6982 61.6672 34.1136 61.0217C34.5291 60.3762 34.75 59.6248 34.75 58.8572V29.7142C34.75 21.4399 47.75 21.2829 47.75 29.8834V36.5712C47.75 38.7802 49.541 40.5712 51.75 40.5712H53.5C55.709 40.5712 57.5 38.7802 57.5 36.5712V26.2854C57.5 18.0019 70.5 17.8667 70.5 26.4547V36.5712C70.5 38.7802 72.2908 40.5712 74.5 40.5712H76.25C78.4592 40.5712 80.25 38.7802 80.25 36.5712V29.7139C80.25 21.4564 93.25 21.2689 93.25 29.8832V36.5709C93.25 38.7799 95.0408 40.5709 97.25 40.5709H99C101.209 40.5709 103 38.7799 103 36.5709C103 28.2844 116 28.1677 116 36.7402V65.3514Z" fill="black"/>
<path d="M116 65.3514C116.002 67.5536 115.552 69.7328 114.679 71.7547L103.971 96.6684C102.663 99.7112 102 102.928 102 106.231V108H47V105.428C47 101.336 45.215 97.4342 42.1025 94.7242L17.675 73.4542C14.0685 70.3137 12 65.8089 12 61.0952V46.8569C12 38.5549 25 38.4727 25 47.0262V57.3332C25 57.9049 25.1226 58.4701 25.3594 58.9905C25.5963 59.5109 25.942 59.9744 26.3732 60.3499L28.1232 61.8737C28.7022 62.3778 29.4139 62.7046 30.1735 62.8153C30.9331 62.9259 31.7085 62.8156 32.4072 62.4976C33.1058 62.1796 33.6982 61.6672 34.1136 61.0217C34.5291 60.3762 34.75 59.6248 34.75 58.8572V29.7142C34.75 21.4399 47.75 21.2829 47.75 29.8834V36.5712C47.75 38.7802 49.541 40.5712 51.75 40.5712H53.5C55.709 40.5712 57.5 38.7802 57.5 36.5712V26.2854C57.5 18.0019 70.5 17.8667 70.5 26.4547V36.5712C70.5 38.7802 72.2908 40.5712 74.5 40.5712H76.25C78.4592 40.5712 80.25 38.7802 80.25 36.5712V29.7139C80.25 21.4564 93.25 21.2689 93.25 29.8832V36.5709C93.25 38.7799 95.0408 40.5709 97.25 40.5709H99C101.209 40.5709 103 38.7799 103 36.5709C103 28.2844 116 28.1677 116 36.7402V65.3514Z" fill="#FFC700"/>
</svg>
