<svg width="128" height="112" viewBox="0 0 128 112" fill="none" xmlns="http://www.w3.org/2000/svg">
<path d="M64 112L81.5 111.997C82.7785 111.997 84.0578 111.851 85.3008 111.565L115.05 104.708C122.64 102.959 128 96.2551 128 88.5693V37.1438C128 31.1826 124.742 25.6561 119.499 22.7213L94.999 9.00809C86.3968 4.19284 78.1833 7.55209 71.9445 15.1913L35.7125 1.25209C26.2408 -2.39266 15.5595 2.18384 11.802 11.5523C8.0275 20.9628 12.7108 31.6448 22.2875 35.3303L42 40.0001L18.5 37.7148C8.299 37.7148 0 45.9176 0 55.9998C0 66.0823 8.299 74.2851 18.5 74.2851H40.4087C39.49 80.8463 42.5817 87.1093 47.994 90.5366C44.6642 101.184 52.761 112 64 112ZM64 99.9968C57.71 99.9968 57.72 90.8551 64 90.8551C66.2092 90.8551 68 89.0643 68 86.8551V85.1411C68 82.9318 66.2092 81.1411 64 81.1411H57C50.7102 81.1411 50.7195 71.9993 57 71.9993H64C66.2092 71.9993 68 70.2086 68 67.9993V66.2853C68 64.0761 66.2092 62.2853 64 62.2853H18.5C9.8925 62.2853 9.90625 49.7151 18.5 49.7151H64C66.2092 49.7151 68 47.9243 68 45.7151V42.8071C68 41.9987 67.7551 41.2092 67.2974 40.5427C66.8398 39.8763 66.191 39.3642 65.4365 39.0738L26.5972 24.1276C18.7092 21.0926 23.2393 9.30684 31.4028 12.4483L73.04 28.4711C73.8263 28.7736 74.688 28.8202 75.5023 28.6042C76.3165 28.3882 77.0418 27.9206 77.5748 27.2681L83.0157 20.6063C84.4707 18.8246 87.1027 18.3403 89.1377 19.4793L113.638 33.1928C115.095 34.0086 116 35.5223 116 37.1441V88.5693C116 90.6921 114.502 92.5203 112.356 93.0148L82.6058 99.8716C82.2431 99.955 81.8721 99.9971 81.5 99.9971L64 99.9968Z" fill="black"/>
<path d="M64 99.9968C57.71 99.9968 57.72 90.8551 64 90.8551C66.2092 90.8551 68 89.0643 68 86.8551V85.1411C68 82.9318 66.2092 81.1411 64 81.1411H57C50.7102 81.1411 50.7195 71.9993 57 71.9993H64C66.2092 71.9993 68 70.2086 68 67.9993V66.2853C68 64.0761 66.2092 62.2853 64 62.2853H18.5C9.8925 62.2853 9.90625 49.7151 18.5 49.7151H64C66.2092 49.7151 68 47.9243 68 45.7151V42.8071C68 41.9987 67.7551 41.2092 67.2974 40.5427C66.8398 39.8763 66.191 39.3642 65.4365 39.0738L26.5972 24.1276C18.7092 21.0926 23.2393 9.30684 31.4028 12.4483L73.04 28.4711C73.8263 28.7736 74.688 28.8202 75.5023 28.6042C76.3165 28.3882 77.0418 27.9206 77.5748 27.2681L83.0157 20.6063C84.4707 18.8246 87.1027 18.3403 89.1377 19.4793L113.638 33.1928C115.095 34.0086 116 35.5223 116 37.1441V88.5693C116 90.6921 114.502 92.5203 112.356 93.0148L82.6058 99.8716C82.2431 99.955 81.8721 99.9971 81.5 99.9971L64 99.9968Z" fill="#FFC700"/>
</svg>
