<svg width="128" height="128" viewBox="0 0 128 128" fill="none" xmlns="http://www.w3.org/2000/svg">
<path d="M64 120L81.5 119.997C82.7785 119.997 84.0578 119.851 85.3008 119.565L115.05 112.708C122.64 110.959 128 104.255 128 96.5693V45.1438C128 39.1826 124.742 33.6561 119.499 30.7213L94.999 17.0081C86.3968 12.1928 78.1833 15.5521 71.9445 23.1913L35.7125 9.25209C26.2408 5.60734 15.5595 10.1838 11.802 19.5523C8.0275 28.9628 12.7108 39.6448 22.2875 43.3303L42 48.0001L18.5 45.7148C8.299 45.7148 0 53.9176 0 63.9998C0 74.0823 8.299 82.2851 18.5 82.2851H40.4087C39.49 88.8463 42.5817 95.1093 47.994 98.5366C44.6642 109.184 52.761 120 64 120ZM64 107.997C57.71 107.997 57.72 98.8551 64 98.8551C66.2092 98.8551 68 97.0643 68 94.8551V93.1411C68 90.9318 66.2092 89.1411 64 89.1411H57C50.7102 89.1411 50.7195 79.9993 57 79.9993H64C66.2092 79.9993 68 78.2086 68 75.9993V74.2853C68 72.0761 66.2092 70.2853 64 70.2853H18.5C9.8925 70.2853 9.90625 57.7151 18.5 57.7151H64C66.2092 57.7151 68 55.9243 68 53.7151V50.8071C68 49.9987 67.7551 49.2092 67.2974 48.5427C66.8398 47.8763 66.191 47.3642 65.4365 47.0738L26.5972 32.1276C18.7092 29.0926 23.2393 17.3068 31.4028 20.4483L73.04 36.4711C73.8263 36.7736 74.688 36.8202 75.5023 36.6042C76.3165 36.3882 77.0418 35.9206 77.5748 35.2681L83.0157 28.6063C84.4707 26.8246 87.1027 26.3403 89.1377 27.4793L113.638 41.1928C115.095 42.0086 116 43.5223 116 45.1441V96.5693C116 98.6921 114.502 100.52 112.356 101.015L82.6058 107.872C82.2431 107.955 81.8721 107.997 81.5 107.997L64 107.997Z" fill="white"/>
</svg>
