<svg width="115" height="120" viewBox="0 0 115 120" fill="none" xmlns="http://www.w3.org/2000/svg">
<path d="M125.257 21.044C120.41 13.167 112.446 12.112 108.68 12.2895C105.152 -0.412969 93.179 -1.23047 90.9955 -1.23047C86.753 -1.21713 82.644 0.253324 79.3564 2.93467C76.0687 5.61601 73.8021 9.34546 72.936 13.4985L71.7742 19.1635L68.3535 5.86203C66.0795 -2.98072 56.7505 -10.1507 45.9385 -7.40622C41.6618 -6.30629 37.9205 -3.71086 35.3926 -0.090157C32.8646 3.53054 31.7172 7.93698 32.1582 12.3308C29.4219 12.5464 26.7683 13.3707 24.3915 14.7436C22.0147 16.1165 19.9747 18.0032 18.4207 20.2658C16.8668 22.5283 15.8381 25.1096 15.4098 27.8208C14.9816 30.532 15.1647 33.3047 15.9457 35.936L22.0357 56.4855C12.4757 54.5993 6.33646 60.5313 5.00672 61.9473C3.34794 63.7097 2.05274 65.7817 1.19515 68.0449C0.337555 70.3082 -0.0656142 72.7182 0.00868143 75.1373C0.0829771 77.5564 0.633281 79.9372 1.62814 82.1435C2.623 84.3498 4.04291 86.3385 5.80671 87.9958L28.648 109.49C35.8152 116.253 45.3009 120.014 55.1555 120H82.0195C89.2073 120.02 96.1901 117.605 101.831 113.15C107.472 108.695 111.438 102.462 113.085 95.4653L127.49 34.975C128.059 32.6208 128.154 30.1772 127.77 27.7858C127.387 25.3945 126.533 23.1028 125.257 21.044ZM115.818 32.1955L101.412 92.6873C100.384 97.0549 97.9081 100.946 94.3868 103.727C90.8655 106.508 86.5066 108.015 82.0197 108.002H55.1557C48.3583 108.012 41.8153 105.418 36.8715 100.753L14.0292 79.2578C7.83596 73.432 16.6527 64.033 22.8492 69.8853L35.6297 81.912C36.9862 83.1893 39.0005 82.091 39.0005 80.4553C39.0006 74.5173 38.1436 68.6104 36.456 62.9173L27.4527 32.5325C25.0195 24.3118 37.3775 20.7148 39.7992 28.8763L47.6352 55.3213C49.0337 60.0473 56.0805 57.9993 54.8765 53.3193L44.266 12.0593C42.14 3.78353 54.624 0.647782 56.7322 8.85053L68.564 54.8593C69.6707 59.1698 75.8545 58.9853 76.7415 54.658L84.6892 15.9155C86.3917 7.63853 99.0687 9.88853 97.2192 18.906L90.0817 53.6975C89.1512 58.225 95.999 59.8553 97.096 55.2518L103.296 29.2153C105.287 20.8783 117.785 23.9495 115.818 32.1955Z" fill="black"/>
<path d="M115.818 32.1955L101.412 92.6873C100.384 97.0549 97.9081 100.946 94.3868 103.727C90.8655 106.508 86.5066 108.015 82.0197 108.002H55.1557C48.3583 108.012 41.8153 105.418 36.8715 100.753L14.0292 79.2578C7.83596 73.432 16.6527 64.033 22.8492 69.8853L35.6297 81.912C36.9862 83.1893 39.0005 82.091 39.0005 80.4553C39.0006 74.5173 38.1436 68.6104 36.456 62.9173L27.4527 32.5325C25.0195 24.3118 37.3775 20.7148 39.7992 28.8763L47.6352 55.3213C49.0337 60.0473 56.0805 57.9993 54.8765 53.3193L44.266 12.0593C42.14 3.78353 54.624 0.647782 56.7322 8.85053L68.564 54.8593C69.6707 59.1698 75.8545 58.9853 76.7415 54.658L84.6892 15.9155C86.3917 7.63853 99.0687 9.88853 97.2192 18.906L90.0817 53.6975C89.1512 58.225 95.999 59.8553 97.096 55.2518L103.296 29.2153C105.287 20.8783 117.785 23.9495 115.818 32.1955Z" fill="#FFC700"/>
</svg>
