<svg width="128" height="128" viewBox="0 0 128 128" fill="none" xmlns="http://www.w3.org/2000/svg">
<path d="M125.257 29.044C120.41 21.167 112.446 20.112 108.68 20.2895C105.152 7.58703 93.179 6.76953 90.9955 6.76953C86.7531 6.78287 82.644 8.25332 79.3564 10.9347C76.0687 13.616 73.8021 17.3455 72.936 21.4985L71.7742 27.1635L68.3535 13.862C66.0795 5.01928 56.7505 -2.15072 45.9385 0.593782C41.6618 1.69371 37.9205 4.28914 35.3926 7.90984C32.8646 11.5305 31.7172 15.937 32.1582 20.3308C29.4219 20.5464 26.7683 21.3707 24.3915 22.7436C22.0147 24.1165 19.9747 26.0032 18.4207 28.2658C16.8668 30.5283 15.8381 33.1096 15.4098 35.8208C14.9816 38.532 15.1647 41.3047 15.9457 43.936L22.0357 64.4855C12.4757 62.5993 6.33647 68.5313 5.00672 69.9473C3.34794 71.7097 2.05274 73.7817 1.19515 76.0449C0.337555 78.3082 -0.0656142 80.7182 0.00868143 83.1373C0.0829771 85.5564 0.633281 87.9372 1.62814 90.1435C2.623 92.3498 4.04291 94.3385 5.80672 95.9958L28.648 117.49C35.8152 124.253 45.3009 128.014 55.1555 128H82.0195C89.2073 128.02 96.1901 125.605 101.831 121.15C107.472 116.695 111.438 110.462 113.085 103.465L127.49 42.975C128.059 40.6208 128.154 38.1772 127.771 35.7858C127.387 33.3945 126.533 31.1031 125.258 29.0443M115.818 40.1955L101.412 100.687C100.384 105.055 97.9081 108.946 94.3868 111.727C90.8656 114.508 86.5066 116.015 82.0197 116.002H55.1557C48.3583 116.012 41.8153 113.418 36.8715 108.753L14.0292 87.2578C7.83597 81.432 16.6527 72.033 22.8492 77.8853L35.6297 89.912C36.9862 91.1893 39.0005 90.091 39.0005 88.4553C39.0006 82.5173 38.1436 76.6104 36.456 70.9173L27.4527 40.5325C25.0195 32.3118 37.3775 28.7148 39.7992 36.8763L47.6352 63.3213C49.0337 68.0473 56.0805 65.9993 54.8765 61.3193L44.266 20.0593C42.14 11.7835 54.624 8.64778 56.7322 16.8505L68.564 62.8593C69.6707 67.1698 75.8545 66.9853 76.7415 62.658L84.6892 23.9155C86.3917 15.6385 99.0687 17.8885 97.2192 26.906L90.0817 61.6975C89.1512 66.225 95.999 67.8553 97.096 63.2518L103.296 37.2153C105.287 28.8783 117.785 31.9495 115.818 40.1955Z" fill="white"/>
</svg>
